<?xml version="1.0" encoding="utf-8"?>
<!-- Generator: Adobe Illustrator 27.8.0, SVG Export Plug-In . SVG Version: 6.00 Build 0)  -->
<svg version="1.1" id="Layer_1" xmlns="http://www.w3.org/2000/svg" xmlns:xlink="http://www.w3.org/1999/xlink" x="0px" y="0px"
	 viewBox="0 0 500 187.58" style="enable-background:new 0 0 500 187.58;" xml:space="preserve">
<style type="text/css">
	.st0{fill:#2b7a78;}
</style>
<g>
	<g>
		<path class="st0" d="M427.95,141.23c-0.18-0.14-0.27-0.23-0.38-0.28c-5.7-2.89-9.85-7.35-12.99-12.83
			c-2.02-3.52-3.57-7.26-5.15-10.98c-4.61-10.88-8.82-21.9-12.32-33.19c-3.75-12.1-6.98-24.34-9.77-36.7
			c-0.03-0.12-0.06-0.24-0.09-0.36c-0.42-2.31-0.06-3.16,1.91-4.43c4.17-2.69,8.63-4.66,13.62-5.2c4.83-0.52,9.56-0.06,14.14,1.58
			c3.7,1.33,6.16,4.05,7.86,7.52c0.98,1.99,1.54,4.13,2.17,6.24c5.7,19.23,11.14,38.54,16.69,57.81c0.35,1.2,0.82,2.3,1.81,3.09
			c0.4-0.07,0.39-0.41,0.51-0.65c1.57-3.18,2.3-6.63,3.21-10.02c4.29-15.98,8.57-31.96,12.73-47.97c0.8-3.09,1.26-6.24,1.6-9.41
			c0.33-3.06,2.04-5.1,4.92-6.14c2.55-0.92,5.2-1.43,7.87-1.81c4.87-0.7,9.7-0.58,14.47,0.77c5.49,1.55,8.64,5.44,9.14,11.14
			c0.27,3.08-0.07,6.13-0.41,9.17c-1.6,14.44-5.76,28.23-10.89,41.75c-6.4,16.86-13.63,33.36-21.86,49.41
			c-3.91,7.62-8.42,14.87-13.89,21.49c-2.29,2.78-4.72,5.43-7.39,7.86c-4.35,3.96-9.32,6.74-15.14,7.88
			c-5.54,1.08-11.01,0.63-16.34-1.14c-4-1.33-6.95-4.07-9.17-7.6c-1.74-2.77-2.81-5.79-3.23-9.05c-0.12-0.9,0.07-1.62,0.66-2.25
			c0.75-0.81,1.53-1.59,2.32-2.36c6.91-6.68,13.83-13.35,20.75-20.02C426.33,143.58,427.18,142.49,427.95,141.23z"/>
		<path class="st0" d="M372.33,99.79c0,4.95,0.01,9.89,0,14.84c-0.01,3.52,0.09,7.03,0.21,10.55c0.2,5.76-1.84,10.54-6.23,14.31
			c-2.86,2.45-6.16,4.15-9.58,5.64c-5.7,2.48-11.67,3.94-17.79,4.9c-7.87,1.22-15.79,1.53-23.73,1.21
			c-7.21-0.3-14.35-1.09-21.24-3.41c-5.07-1.71-9.84-4.02-14.05-7.36c-5.98-4.75-9.45-10.97-10.58-18.48
			c-0.83-5.54-0.86-11.09,0.46-16.57c2.41-10.01,8.55-16.7,18.23-20.17c3.63-1.3,7.41-2.02,11.19-2.7
			c6.8-1.22,13.65-2.15,20.52-2.88c3.82-0.41,7.65-0.71,11.48-1.07c0.65-0.06,1.3-0.13,1.95-0.21c1.84-0.24,2.59-1.15,2.41-3
			c-0.32-3.23-1.77-5.83-4.45-7.7c-1.08-0.75-2.26-1.31-3.51-1.73c-5.87-1.95-11.9-2.47-18.04-1.92c-6.46,0.58-12.7,2.25-18.95,3.9
			c-1.78,0.47-3.55,0.96-5.32,1.44c-0.32,0.08-0.64,0.15-0.95,0.23c-1.92,0.49-3.46-0.08-4.64-1.67c-1.99-2.66-3.33-5.62-3.96-8.88
			c-0.46-2.43-0.49-4.88,0.09-7.3c1-4.17,3.47-7.24,7.09-9.45c2.33-1.42,4.9-2.23,7.51-2.94c6.85-1.87,13.83-2.88,20.92-3.26
			c6.84-0.37,13.66-0.07,20.46,0.58c7.81,0.75,15.27,2.75,22.16,6.61c5.41,3.03,10.01,6.93,13.28,12.26
			c2.79,4.55,4.3,9.51,4.72,14.81c0.37,4.73,0.17,9.48,0.26,14.22c0.1,5.07,0.14,10.14,0.21,15.21
			C372.41,99.79,372.37,99.79,372.33,99.79z M336.29,112.73c0-2.03-0.01-3.54,0-5.05c0.01-1.06-0.02-2.13-0.19-3.18
			c-0.16-0.97-0.58-1.34-1.55-1.42c-0.41-0.03-0.82-0.02-1.22,0.01c-1.14,0.08-2.28,0.21-3.42,0.28
			c-6.13,0.41-12.19,1.34-18.14,2.81c-3.2,0.79-5.31,3.02-6.33,6.12c-0.82,2.5,0.01,4.77,1.56,6.77c2,2.58,4.71,3.96,7.91,4.47
			c4.54,0.72,9.05,0.5,13.54-0.31c1.77-0.32,3.55-0.62,5.23-1.29c1.91-0.76,2.78-2.03,2.65-4.08
			C336.2,115.96,336.25,114.09,336.29,112.73z"/>
		<path class="st0" d="M145.61,151.34c-8.6,0.08-17.04-0.98-25.23-3.76c-6.56-2.23-12.65-5.33-18.02-9.75
			c-7.13-5.87-12.02-13.29-15.18-21.92c-3.22-8.79-4.64-17.86-4.13-27.21c0.42-7.65,2-15.07,4.96-22.15
			C93.48,53.48,103,44.64,116.3,39.85c5.76-2.08,11.73-3.24,17.82-3.77c8.45-0.73,16.74,0.04,24.81,2.75
			c6.21,2.09,12.01,4.96,17.16,9.06c7.99,6.37,12.9,14.65,15.17,24.55c0.8,3.47,1.37,6.98,1.28,10.56
			c-0.05,2.18-0.36,4.31-1.01,6.39c-1.54,4.87-4.84,7.87-9.77,9.04c-4.77,1.14-9.61,1.97-14.45,2.74
			c-6.62,1.05-13.24,2.1-19.87,3.11c-6.91,1.05-13.83,2.04-20.75,3.06c-0.97,0.14-1.94,0.31-2.91,0.46c-0.49,0.08-0.96,0.2-1.4,0.44
			c-0.71,0.38-0.9,0.83-0.7,1.62c0.15,0.6,0.44,1.14,0.75,1.67c2.53,4.43,6.37,7.26,11.07,9.05c3.35,1.27,6.87,1.76,10.36,2.47
			c3.49,0.72,6.93,0.28,10.37-0.07c4.85-0.5,9.63-1.36,14.28-2.87c2.61-0.84,5.14-1.88,7.59-3.12c0.44-0.22,0.88-0.44,1.34-0.61
			c1.36-0.52,2.66-0.37,3.83,0.52c0.52,0.39,1.01,0.84,1.46,1.3c4.85,4.97,6.21,12.97,3.28,19.26c-1.41,3.02-3.64,5.3-6.53,6.95
			c-4.37,2.49-9.07,4.11-13.98,5.13c-5.71,1.18-11.49,1.62-17.3,1.8C147.33,151.36,146.47,151.34,145.61,151.34z M139.3,63.37
			c-2.36-0.04-4.66,0.3-6.88,1.03c-6.95,2.3-11.58,6.84-13.43,14.02c-0.29,1.11-0.49,2.24-0.42,3.39c0.05,0.85,0.38,1.18,1.22,1.22
			c0.49,0.02,0.98-0.01,1.47-0.09c10.44-1.71,20.88-3.42,31.31-5.14c0.77-0.13,1.54-0.24,2.29-0.43c1.35-0.34,1.73-1.03,1.38-2.35
			c-0.06-0.24-0.14-0.47-0.22-0.7c-0.81-2.12-1.98-4.03-3.57-5.67C148.84,64.96,144.38,63.38,139.3,63.37z"/>
		<path class="st0" d="M249.87,79.1c0,16.07-0.01,32.15,0,48.22c0,5.48,0.04,10.96,0.06,16.44c0,0.57-0.03,1.15-0.1,1.71
			c-0.18,1.42-1,2.27-2.39,2.62c-1.32,0.33-2.66,0.41-4,0.59c-4.47,0.58-8.94,1.04-13.45,0.86c-2.7-0.11-5.37-0.44-7.98-1.21
			c-5.16-1.52-8.22-4.96-9.36-10.17c-0.41-1.88-0.59-3.79-0.59-5.72c0.01-14.81,0.01-29.61,0-44.42
			c-0.01-21.23-0.03-42.46-0.05-63.68c-0.01-6.05-0.06-12.11-0.07-18.16c0-0.69,0.08-1.39,0.17-2.07c0.18-1.36,0.97-2.2,2.27-2.6
			c1.18-0.36,2.41-0.46,3.62-0.63c4.38-0.59,8.78-0.95,13.21-0.81c2.62,0.08,5.22,0.35,7.8,0.83c5.07,0.96,8.22,4.11,9.91,8.85
			c0.68,1.91,0.83,3.9,0.85,5.92C249.91,36.81,249.86,57.95,249.87,79.1z"/>
		<path class="st0" d="M0.23,98.41c0-11.37,0.04-22.74-0.02-34.11c-0.03-6.5,2.56-11.63,7.67-15.53c3.31-2.53,7.05-4.28,10.86-5.89
			c6.44-2.71,13.16-4.42,20.04-5.51c5.18-0.82,10.38-1.39,15.63-1.2c3.32,0.12,6.61,0.52,9.81,1.44
			c11.03,3.19,15.89,15.97,9.81,25.71c-0.54,0.87-1.27,1.38-2.24,1.55c-2.46,0.43-4.91,0.84-7.38,1.23
			c-7.55,1.19-15.12,2.25-22.63,3.68c-0.6,0.11-1.19,0.29-1.78,0.47c-1.39,0.41-2.08,1.39-2.18,2.79c-0.07,0.98-0.12,1.96-0.12,2.94
			c-0.01,16.89-0.01,33.79,0,50.68c0,5.81,0.05,11.61,0.08,17.42c0,0.57-0.03,1.14-0.12,1.71c-0.22,1.44-1.08,2.29-2.47,2.51
			c-1.77,0.29-3.56,0.5-5.35,0.71c-2.8,0.32-5.61,0.58-8.44,0.65c-3.95,0.09-7.85-0.22-11.65-1.36c-5.68-1.69-8.85-5.83-9.28-11.75
			c-0.67-9.19-0.46-18.39-0.41-27.59c0.02-3.52,0-7.03,0-10.55C0.13,98.41,0.18,98.41,0.23,98.41z"/>
	</g>
</g>
</svg>
