<svg viewBox="0 0 1440 484" fill="none" xmlns="http://www.w3.org/2000/svg" class="c-PJLV c-PJLV-icAgaIp-css"><path stroke="transparent" d="M 931.50038 217.81674 A 397.5 118 0 0 1 719.5 236 A 397.5 118 0 0 1 485.86353 213.46577 "></path><path d="M1116.5 118C1116.5 134.048 1105.54 149.438 1085.48 163.522C1065.42 177.595 1036.37 190.29 1000.43 200.959C928.557 222.296 829.232 235.5 719.5 235.5C609.768 235.5 510.443 222.296 438.567 200.959C402.626 190.29 373.577 177.595 353.525 163.522C333.458 149.438 322.5 134.048 322.5 118C322.5 101.952 333.458 86.5619 353.525 72.4783C373.577 58.4045 402.626 45.71 438.567 35.0407C510.443 13.7041 609.768 0.5 719.5 0.5C829.232 0.5 928.557 13.7041 1000.43 35.0407C1036.37 45.71 1065.42 58.4045 1085.48 72.4783C1105.54 86.5619 1116.5 101.952 1116.5 118Z" stroke="url(#paint0_linear_25_2845)" stroke-opacity="0.1"></path><ellipse cx="719.5" cy="118" rx="397.5" ry="118" fill="url(#paint1_linear_25_2845)"></ellipse><ellipse cx="719.5" cy="191" rx="576.5" ry="171" fill="url(#paint2_linear_25_2845)"></ellipse><path stroke="transparent" d="M 842.118 357.62306 C 802.60437 360.16245 761.57935 361.5 719.5 361.5 C 560.338 361.5 416.263 342.364 311.995 311.436 C 293.28929 305.88747 275.86837 299.96049 259.87373 293.69806 "></path><path stroke="transparent" d="M 1207.7199 281.42751 C 1184.6471 292.314 1157.535 302.37916 1127 311.436 C 1050.3043 334.18724 952.0617 350.5574 842.118 357.62306 "></path><path d="M1295.5 191C1295.5 214.365 1279.53 236.727 1250.41 257.152C1221.3 277.566 1179.14 295.971 1127 311.436C1022.74 342.364 878.662 361.5 719.5 361.5C560.338 361.5 416.263 342.364 311.995 311.436C259.858 295.971 217.702 277.566 188.591 257.152C159.467 236.727 143.5 214.365 143.5 191C143.5 167.635 159.467 145.273 188.591 124.848C217.702 104.434 259.858 86.0289 311.995 70.5641C416.263 39.6363 560.338 20.5 719.5 20.5C878.662 20.5 1022.74 39.6363 1127 70.5641C1179.14 86.0289 1221.3 104.434 1250.41 124.848C1279.53 145.273 1295.5 167.635 1295.5 191Z" stroke="url(#paint3_linear_25_2845)" stroke-opacity="0.1"></path><path stroke="transparent" d="M 977.51391 469.46913 C 897.55864 478.5331 810.74174 483.5 720 483.5 C 618.5839 483.5 522.07088 477.29581 434.56067 466.10175 "></path><path d="M1439.5 271C1439.5 300.164 1419.52 328.05 1383.13 353.499C1346.76 378.939 1294.1 401.869 1228.98 421.134C1098.74 459.663 918.788 483.5 720 483.5C521.212 483.5 341.262 459.663 211.025 421.134C145.903 401.869 93.2397 378.939 56.8677 353.499C20.4816 328.05 0.5 300.164 0.5 271C0.5 241.836 20.4816 213.95 56.8677 188.501C93.2397 163.061 145.903 140.131 211.025 120.866C341.262 82.3374 521.212 58.5 720 58.5C918.788 58.5 1098.74 82.3374 1228.98 120.866C1294.1 140.131 1346.76 163.061 1383.13 188.501C1419.52 213.95 1439.5 241.836 1439.5 271Z" stroke="url(#paint4_linear_25_2845)" stroke-opacity="0.1"></path><ellipse cx="720" cy="271" rx="720" ry="213" fill="url(#paint5_linear_25_2845)"></ellipse><defs><linearGradient id="paint0_linear_25_2845" x1="719.5" y1="0" x2="719.5" y2="236" gradientUnits="userSpaceOnUse"><stop offset="0.149299" stop-color="#FAFAF3" stop-opacity="0"></stop><stop offset="1" stop-color="#FAFAF3"></stop></linearGradient><linearGradient id="paint1_linear_25_2845" x1="719.5" y1="78.5" x2="719.5" y2="278.5" gradientUnits="userSpaceOnUse"><stop stop-color="#7A51DE" stop-opacity="0"></stop><stop offset="1" stop-color="#FAFAF3" stop-opacity="0.08"></stop></linearGradient><linearGradient id="paint2_linear_25_2845" x1="719.5" y1="133.758" x2="719.5" y2="423.589" gradientUnits="userSpaceOnUse"><stop stop-color="#7A51DE" stop-opacity="0"></stop><stop offset="1" stop-color="#FAFAF3" stop-opacity="0.08"></stop></linearGradient><linearGradient id="paint3_linear_25_2845" x1="719.5" y1="20" x2="719.5" y2="362" gradientUnits="userSpaceOnUse"><stop offset="0.149299" stop-color="#FAFAF3" stop-opacity="0"></stop><stop offset="1" stop-color="#FAFAF3"></stop></linearGradient><linearGradient id="paint4_linear_25_2845" x1="720" y1="58" x2="720" y2="484" gradientUnits="userSpaceOnUse"><stop offset="0.149299" stop-color="#FAFAF3" stop-opacity="0"></stop><stop offset="1" stop-color="#FAFAF3"></stop></linearGradient><linearGradient id="paint5_linear_25_2845" x1="720" y1="199.699" x2="720" y2="560.716" gradientUnits="userSpaceOnUse"><stop stop-color="#7A51DE" stop-opacity="0"></stop><stop offset="1" stop-color="#FAFAF3" stop-opacity="0.08"></stop></linearGradient></defs></svg>
