<svg width="627" height="608" viewBox="0 0 627 608" fill="none" xmlns="http://www.w3.org/2000/svg">
<path d="M150.266 229.947C178.768 252.216 186.464 291.267 170.346 322.331C166.834 329.102 167.745 337.734 173.74 342.417C182.459 349.229 195.572 343.463 197.996 332.641C203.329 308.837 213.901 285.803 229.927 265.291C287.576 191.505 393.957 178.291 467.536 235.777C489.643 253.049 526.226 254.875 553.99 259.029C563.561 260.46 572.898 264.307 581.062 270.684C606.355 290.445 610.794 327.027 590.977 352.391C570.015 379.222 531.815 406.037 518.101 437.196C512.524 449.866 505.297 462.057 496.381 473.468C438.733 547.255 332.352 560.469 258.772 502.982C232.916 482.781 214.551 456.538 204.107 427.791C197.931 410.791 188.885 394.591 174.642 383.464C152.082 365.838 120.299 366.23 92.0484 361.471C80.337 359.499 68.9407 354.669 58.9318 346.85C26.7409 321.699 21.0908 275.141 46.312 242.86C71.5332 210.578 118.075 204.797 150.266 229.947Z" fill="#292929" fill-opacity="0.24"/>
</svg>
