<svg width="1924" height="1581" viewBox="0 0 1924 1581" fill="none" xmlns="http://www.w3.org/2000/svg">
<path d="M650.892 970.572C773.109 924.721 909.49 986.99 955.508 1109.65C1001.53 1232.32 939.754 1368.92 817.538 1414.77C695.322 1460.62 558.941 1398.35 512.923 1275.69C466.905 1153.03 528.676 1016.42 650.892 970.572Z" fill="url(#paint0_linear_2411_53669)"/>
<path d="M591.646 644.429C580.886 615.747 591.851 581.012 620.428 570.291L923.981 456.411C943.176 449.209 963.508 464.653 964.014 485.215C964.302 496.941 957.813 507.914 947.576 513.563C846.497 569.338 799.04 692.581 840.939 804.264C886.957 926.927 1023.34 989.196 1145.55 943.345C1184.13 928.872 1216.69 905.355 1241.73 876.088C1258.43 856.575 1282.94 844.829 1308.55 846.642C1346.99 849.362 1380.66 881.042 1390.2 918.492C1392.35 926.908 1394.97 935.293 1398.09 943.613C1444.11 1066.28 1580.49 1128.54 1702.71 1082.69C1824.92 1036.84 1886.7 900.236 1840.68 777.574C1816.76 713.808 1768.41 666.364 1710.34 641.944C1699.32 637.314 1690.2 628.797 1685.99 617.59C1682.69 608.781 1682.71 599.111 1685.56 590.159C1709.93 513.575 1709.7 428.459 1679.24 347.254C1607.34 155.593 1394.24 58.2988 1203.28 129.94C1162.76 145.14 1126.5 166.724 1095.19 193.128C990.855 281.126 903.555 400.734 775.815 448.657C621.615 506.506 433.267 437.512 274.117 479.909C265.688 482.154 257.292 484.835 248.954 487.963C111.461 539.545 41.9682 693.228 93.7384 831.223C145.509 969.219 298.937 1039.27 436.431 987.689C573.924 936.107 643.417 782.424 591.646 644.429Z" fill="url(#paint1_linear_2411_53669)"/>
<defs>
<linearGradient id="paint0_linear_2411_53669" x1="1764" y1="633" x2="1368.55" y2="1148.04" gradientUnits="userSpaceOnUse">
<stop stop-color="#FAFAF3"/>
<stop offset="0.393005" stop-color="#F5F4ED"/>
</linearGradient>
<linearGradient id="paint1_linear_2411_53669" x1="1764" y1="633" x2="1368.55" y2="1148.04" gradientUnits="userSpaceOnUse">
<stop stop-color="#FAFAF3"/>
<stop offset="0.393005" stop-color="#F5F4ED"/>
</linearGradient>
</defs>
</svg>
