<svg viewBox="0 0 1852 1006" fill="none" xmlns="http://www.w3.org/2000/svg"><path fill="#824fe7" d="M-326.162 1409.619h1852v1006h-1852z"></path><path d="M1852 39.75c0-7.202 0-10.803-.58-13.8A31.992 31.992 0 0 0 1826.05.577c-3-.577-6.6-.577-13.8-.577H51.2C33.278 0 24.317 0 17.472 3.488A32 32 0 0 0 3.488 17.472C0 24.317 0 33.278 0 51.2v377.755C0 445.824 13.676 459.5 30.546 459.5H62.75C213.662 459.5 336 581.838 336 732.75V757c0 137.519 111.481 249 249 249s249-111.481 249-249V542.75c0-255.846 207.4-463.25 463.25-463.25h523.18c17.44 0 31.57-14.132 31.57-31.566V39.75Z" fill="url(#bg_svg__a)"></path><defs><linearGradient id="bg_svg__a" x1="926" y1="1559" x2="926" y2="-31.5" gradientUnits="userSpaceOnUse"><stop stop-color="#333" stop-opacity="0.2"></stop><stop offset="0.796" stop-color="#333" stop-opacity="0"></stop></linearGradient></defs></svg>