<svg width="22" height="22" fill="none" xmlns="http://www.w3.org/2000/svg" class="c-gzEFDl"><mask id="chat_svg__a" fill="#fff"><path fill-rule="evenodd" clip-rule="evenodd" d="M18.256 12.299c-.473-.267-.827-.756-.827-1.299a7.714 7.714 0 1 0-6.293 7.584c1.693-.316 3.713.13 5.435.13a3.429 3.429 0 0 0 1.684-6.415Z"></path></mask><path d="m11.136 18.584-.275-1.475.275 1.475Zm7.12-6.285.737-1.306-.737 1.306ZM9.715 4.786A6.214 6.214 0 0 1 15.929 11h3a9.214 9.214 0 0 0-9.214-9.214v3ZM3.5 11a6.214 6.214 0 0 1 6.215-6.214v-3A9.214 9.214 0 0 0 .5 11h3Zm6.215 6.214A6.214 6.214 0 0 1 3.5 11h-3a9.214 9.214 0 0 0 9.215 9.214v-3Zm1.146-.105a6.26 6.26 0 0 1-1.146.105v3c.578 0 1.145-.053 1.696-.156l-.55-2.949Zm7.639-1.823a1.929 1.929 0 0 1-1.929 1.929v3a4.929 4.929 0 0 0 4.929-4.93h-3Zm-.982-1.681c.59.333.982.962.982 1.68h3a4.927 4.927 0 0 0-2.507-4.292l-1.475 2.612Zm-6.107 6.453c.64-.119 1.4-.102 2.316-.032.842.066 1.906.189 2.844.189v-3c-.784 0-1.59-.1-2.613-.18-.948-.073-2.044-.122-3.097.074l.55 2.95ZM15.929 11c0 1.206.762 2.138 1.589 2.605l1.475-2.612a.268.268 0 0 1-.076-.067c-.004-.005-.001-.002.003.01.004.014.01.036.01.064h-3Z" fill="#8F8F8C" mask="url(#chat_svg__a)"></path></svg>